<?xml version="1.0" encoding="UTF-8"?>
<svg width="12px" height="12px" viewBox="0 0 12 12" version="1.1" xmlns="http://www.w3.org/2000/svg" xmlns:xlink="http://www.w3.org/1999/xlink">
    <title>icon/收起箭头/下</title>
    <g id="icon/收起箭头/下" stroke="none" stroke-width="1" fill="none" fill-rule="evenodd">
        <rect id="矩形" x="0" y="0" width="12" height="12"></rect>
        <path d="M10.0241399,4.09030365 C10.1684799,4.21243191 10.1864861,4.42844714 10.0643579,4.57278718 C10.0598015,4.5781722 10.0550798,4.58341511 10.0501996,4.5885084 L6.48207972,8.31495818 C6.46261151,8.34968438 6.43671109,8.38157866 6.40453139,8.40880639 C6.32967229,8.47214579 6.23739586,8.50235264 6.14600172,8.50038413 C6.05405887,8.50257189 5.96138333,8.47237612 5.88625201,8.40880639 C5.8540723,8.38157866 5.82817188,8.34968438 5.80870367,8.31495818 L2.24058383,4.5885084 C2.23570355,4.58341511 2.23098186,4.5781722 2.22642552,4.57278718 C2.10429726,4.42844714 2.12230346,4.21243191 2.2666435,4.09030365 C2.42289486,3.95809704 2.65502842,3.97023928 2.79663413,4.11802595 L2.79663413,4.11802595 L6.1453917,7.61164904 L9.49414927,4.11802595 C9.63575498,3.97023928 9.86788854,3.95809704 10.0241399,4.09030365 Z" id="Combined-Shape备份" fill="#909399" opacity="0.800000012"></path>
    </g>
</svg>