<?xml version="1.0" standalone="no"?><!DOCTYPE svg PUBLIC "-//W3C//DTD SVG 1.1//EN" "http://www.w3.org/Graphics/SVG/1.1/DTD/svg11.dtd"><svg t="1629968780841" class="icon" viewBox="0 0 1024 1024" version="1.1" xmlns="http://www.w3.org/2000/svg" p-id="1912" xmlns:xlink="http://www.w3.org/1999/xlink" width="32" height="32"><defs><style type="text/css"></style></defs><path d="M700.352 192C773.056 192 832 250.944 832 323.648v504.704A131.648 131.648 0 0 1 700.352 960H195.648A131.648 131.648 0 0 1 64 828.352V323.648C64 250.944 122.944 192 195.648 192h504.704z m-6.528 201.28a38.528 38.528 0 0 0-49.792-0.256L374.4 628.864 251.968 521.792a38.528 38.528 0 0 0-49.792 0.32 28.8 28.8 0 0 0 0.32 44.16l147.2 128.704a38.528 38.528 0 0 0 49.408 0l294.4-257.472a28.8 28.8 0 0 0 0.32-44.16z" fill="#FFFFFF" p-id="1913"></path><path d="M896 196.544C896 158.72 865.28 128 827.456 128h-615.04c23.872-38.4 66.56-64 115.136-64h496.896C899.328 64 960 124.672 960 199.552v496.896c0 48.64-25.6 91.2-64 115.136V196.48z" fill="#FFFFFF" p-id="1914"></path></svg>