<?xml version="1.0" standalone="no"?><!DOCTYPE svg PUBLIC "-//W3C//DTD SVG 1.1//EN" "http://www.w3.org/Graphics/SVG/1.1/DTD/svg11.dtd"><svg t="1629970696724" class="icon" viewBox="0 0 1024 1024" version="1.1" xmlns="http://www.w3.org/2000/svg" p-id="3191" xmlns:xlink="http://www.w3.org/1999/xlink" width="32" height="32"><defs><style type="text/css"></style></defs><path d="M993.812754 874.278933a44.193617 44.193617 0 0 0-17.268128-3.517581h-8.889889a74.188995 74.188995 0 0 1-38.693398-23.279995c-29.611642-34.216476-32.233839-92.672288-31.594279-121.772282a118.958216 118.958216 0 0 0 48.478671-96.061957C945.845731 564.603835 894.489039 511.648242 831.428393 511.648242c-63.060646 0-114.417338 52.955593-114.417338 117.998876 0 39.652739 19.314721 74.636687 48.478671 96.061957 0.767472 29.099994-1.790769 87.555805-31.338455 121.772282-10.232965 11.831866-23.216039 19.314721-38.629442 23.279995h-9.209669a47.51933 47.51933 0 0 0-46.751858 48.286802v56.025483c0 26.605709 20.977578 48.222847 46.751858 48.222847h290.232466a47.583286 47.583286 0 0 0 46.751858-48.222847v-56.025483a48.414715 48.414715 0 0 0-29.48373-44.769221" fill="#FFFFFF" p-id="3192"></path><path d="M769.582912 0c34.088564 0 61.845481 28.140653 61.845481 62.740866v399.277496a191.420398 191.420398 0 0 0-18.291425-1.023296c-92.224596 0-167.181063 76.04372-167.181063 169.611392 0 45.089001 17.907688 88.067454 49.118232 119.597777-1.662857 28.908126-8.314284 52.635813-18.739117 64.403722a22.832303 22.832303 0 0 1-8.953845 6.075823h-1.91868c-54.106802 0-98.300418 44.769221-98.300419 99.771407v56.089439c0 16.948348 4.66879 32.617575 12.023734 46.751858H61.845481A62.421086 62.421086 0 0 1 0 960.555618V62.67691C0 28.204609 27.756917 0 61.845481 0z m-359.43289 575.604272H165.45425C144.732496 575.604272 127.91206 589.930423 127.91206 607.582287s16.820436 31.978015 37.606146 31.978015h244.56786C430.871776 639.560302 447.692212 625.234152 447.692212 607.582287S430.871776 575.604272 410.086066 575.604272z m128.807445-191.868091H164.558866C144.34876 383.736181 127.91206 398.062332 127.91206 415.714196s16.4367 31.978015 36.646806 31.978016h374.398601C559.167572 447.692212 575.604272 433.366061 575.604272 415.714196S559.167572 383.736181 538.957467 383.736181z m125.993379-191.86809H166.477547C145.180189 191.868091 127.91206 206.194241 127.91206 223.846106s17.268128 31.978015 38.565487 31.978015h498.601211c21.297358 0 38.437574-14.326151 38.437575-31.978015s-17.268128-31.978015-38.565487-31.978015z" fill="#FFFFFF" p-id="3193"></path></svg>