<?xml version="1.0" standalone="no"?><!DOCTYPE svg PUBLIC "-//W3C//DTD SVG 1.1//EN" "http://www.w3.org/Graphics/SVG/1.1/DTD/svg11.dtd"><svg t="1629970684389" class="icon" viewBox="0 0 1024 1024" version="1.1" xmlns="http://www.w3.org/2000/svg" p-id="2623" xmlns:xlink="http://www.w3.org/1999/xlink" width="32" height="32"><defs><style type="text/css"></style></defs><path d="M441.6 64h140.8c14.08 0 25.6 11.52 25.6 25.6v716.8a25.6 25.6 0 0 1-25.6 25.6H441.6a25.6 25.6 0 0 1-25.6-25.6V89.6c0-14.08 11.52-25.6 25.6-25.6zM121.6 448h140.8c14.08 0 25.6 11.52 25.6 25.6v332.8a25.6 25.6 0 0 1-25.6 25.6H121.6a25.6 25.6 0 0 1-25.6-25.6V473.6c0-14.08 11.52-25.6 25.6-25.6zM761.6 320h140.8c14.08 0 25.6 11.52 25.6 25.6v460.8a25.6 25.6 0 0 1-25.6 25.6h-140.8a25.6 25.6 0 0 1-25.6-25.6V345.6c0-14.08 11.52-25.6 25.6-25.6zM121.6 896h780.8c14.08 0 25.6 11.52 25.6 25.6v76.8a25.6 25.6 0 0 1-25.6 25.6H121.6a25.6 25.6 0 0 1-25.6-25.6v-76.8c0-14.08 11.52-25.6 25.6-25.6z" fill="#FFFFFF" p-id="2624"></path></svg>