<?xml version="1.0" standalone="no"?><!DOCTYPE svg PUBLIC "-//W3C//DTD SVG 1.1//EN" "http://www.w3.org/Graphics/SVG/1.1/DTD/svg11.dtd"><svg t="1629970699463" class="icon" viewBox="0 0 1024 1024" version="1.1" xmlns="http://www.w3.org/2000/svg" p-id="3334" xmlns:xlink="http://www.w3.org/1999/xlink" width="32" height="32"><defs><style type="text/css"></style></defs><path d="M896 0a128 128 0 0 1 128 128v768a128 128 0 0 1-128 128H128a128 128 0 0 1-128-128V128a128 128 0 0 1 128-128h768z m-224 192.192a32 32 0 0 0-24.832 11.264l-134.4 157.76-135.936-157.888a32 32 0 0 0-24.704-11.136l-40.576 0.64a25.408 25.408 0 0 0-18.56 42.24l143.488 161.28H291.456a32 32 0 0 0-32 32v10.88a32 32 0 0 0 32 32h177.984v94.208h-177.92a32 32 0 0 0-32 32v11.008a32 32 0 0 0 32 32h177.92V800a32 32 0 0 0 32 32h15.872a32 32 0 0 0 32-32v-159.488h176.256a32 32 0 0 0 32-32v-11.072a32 32 0 0 0-32-32H549.312V471.296h176.256a32 32 0 0 0 32-32v-10.944a32 32 0 0 0-32-32H587.52l143.552-161.28a25.408 25.408 0 0 0-18.56-42.24l-40.512-0.64z" fill="#FFFFFF" p-id="3335"></path></svg>