<?xml version="1.0" standalone="no"?><!DOCTYPE svg PUBLIC "-//W3C//DTD SVG 1.1//EN" "http://www.w3.org/Graphics/SVG/1.1/DTD/svg11.dtd"><svg t="1629970675813" class="icon" viewBox="0 0 1024 1024" version="1.1" xmlns="http://www.w3.org/2000/svg" p-id="2339" xmlns:xlink="http://www.w3.org/1999/xlink" width="32" height="32"><defs><style type="text/css"></style></defs><path d="M973.18784 64c28.096 0 50.816 24.192 50.816 54.272v635.904c0 29.952-23.296 54.272-50.816 54.272H563.20384v107.776h153.6c28.288 0 51.2 24.128 51.2 53.888 0 29.76-22.912 53.888-51.2 53.888H307.20384c-28.288 0-51.2-24.128-51.2-53.888 0-29.76 22.912-53.888 51.2-53.888h153.6v-107.776H50.81984a49.92 49.92 0 0 1-36.096-16.064 55.36 55.36 0 0 1-14.72-38.208V118.272C0.00384 88.32 23.29984 64 50.81984 64h922.368zM618.24384 256.256a32 32 0 0 0-25.472 12.032l-80.256 100.48-81.28-100.608a32 32 0 0 0-25.408-11.904l-19.136 0.256a16.576 16.576 0 0 0-12.416 27.2l90.56 108.48H379.13984a24.96 24.96 0 1 0 0 49.984h106.24v62.784h-106.24a24.96 24.96 0 0 0 0 50.048h106.24v102.72a24.96 24.96 0 1 0 49.92 0V555.008h105.152a24.96 24.96 0 1 0 0-50.048H535.29984v-62.72h105.216a24.96 24.96 0 1 0 0-50.048h-81.28l90.496-108.48a16.576 16.576 0 0 0-12.416-27.2l-19.072-0.256z" fill="#FFFFFF" p-id="2340"></path></svg>