<?xml version="1.0" standalone="no"?><!DOCTYPE svg PUBLIC "-//W3C//DTD SVG 1.1//EN" "http://www.w3.org/Graphics/SVG/1.1/DTD/svg11.dtd"><svg t="1629970690522" class="icon" viewBox="0 0 1024 1024" version="1.1" xmlns="http://www.w3.org/2000/svg" p-id="2907" xmlns:xlink="http://www.w3.org/1999/xlink" width="32" height="32"><defs><style type="text/css"></style></defs><path d="M1013.614549 486.473574L536.879802 10.378739a35.259174 35.259174 0 0 0-49.785185 0L10.487852 486.473574a35.131191 35.131191 0 0 0 24.828602 60.023784h76.469533v404.360653c0 40.314482 32.827507 73.141989 73.20598 73.141989h180.4553v-146.092004c0-40.314482 32.827507-73.20598 73.20598-73.20598h146.539943c40.378473 0 73.20598 32.827507 73.205979 73.20598V1024h179.239467c40.442464 0 73.269971-32.827507 73.269971-73.141989v-404.424644h77.621376a35.195183 35.195183 0 0 0 25.084566-59.959793z" fill="#FFFFFF" p-id="2908"></path></svg>