<?xml version="1.0" standalone="no"?><!DOCTYPE svg PUBLIC "-//W3C//DTD SVG 1.1//EN" "http://www.w3.org/Graphics/SVG/1.1/DTD/svg11.dtd"><svg t="1629970680865" class="icon" viewBox="0 0 1024 1024" version="1.1" xmlns="http://www.w3.org/2000/svg" p-id="2481" xmlns:xlink="http://www.w3.org/1999/xlink" width="32" height="32"><defs><style type="text/css"></style></defs><path d="M780.032 64c13.824-0.064 26.88 6.4 35.2 17.408l199.424 264.64c3.2 4.16 5.568 8.832 7.04 13.888a43.712 43.712 0 0 1-8.96 43.2L552.96 910.592a43.776 43.776 0 0 1-64.128 18.56 46.464 46.464 0 0 1-14.528-14.016L11.264 404.288a43.776 43.776 0 0 1-9.088-43.2 45.952 45.952 0 0 1 7.04-13.888L205.696 86.528A43.648 43.648 0 0 1 243.84 64h536.192zM548.672 696.192a43.392 43.392 0 0 0 3.456-3.52l220.736-243.648a43.584 43.584 0 1 0-64.64-58.688L519.232 598.784 330.432 390.4a43.584 43.584 0 1 0-64.64 58.688l219.264 241.92a43.776 43.776 0 0 0 33.536 16.576h1.408a43.328 43.328 0 0 0 28.672-11.328z" fill="#FFFFFF" p-id="2482"></path></svg>