<?xml version="1.0" standalone="no"?><!DOCTYPE svg PUBLIC "-//W3C//DTD SVG 1.1//EN" "http://www.w3.org/Graphics/SVG/1.1/DTD/svg11.dtd"><svg t="1629970670466" class="icon" viewBox="0 0 1024 1024" version="1.1" xmlns="http://www.w3.org/2000/svg" p-id="2197" xmlns:xlink="http://www.w3.org/1999/xlink" width="32" height="32"><defs><style type="text/css"></style></defs><path d="M320 128v64a64 64 0 0 0 56.512 63.552L384 256h256a64 64 0 0 0 63.552-56.512L704 192V128h96A96 96 0 0 1 896 224v640a96 96 0 0 1-96 96h-576A96 96 0 0 1 128 864v-640A96 96 0 0 1 224 128H320z m416 640h-448a32 32 0 0 0-5.76 63.488L288 832h448a32 32 0 1 0 0-64z m0-192h-448a32 32 0 0 0-5.76 63.488L288 640h448a32 32 0 1 0 0-64z m0-192h-448a32 32 0 0 0-5.76 63.488L288 448h448a32 32 0 1 0 0-64z m-128-320a32 32 0 0 1 32 32v64a32 32 0 0 1-32 32h-192a32 32 0 0 1-32-32v-64a32 32 0 0 1 32-32h192z" fill="#FFFFFF" p-id="2198"></path></svg>