<?xml version="1.0" standalone="no"?><!DOCTYPE svg PUBLIC "-//W3C//DTD SVG 1.1//EN" "http://www.w3.org/Graphics/SVG/1.1/DTD/svg11.dtd"><svg t="1629970702749" class="icon" viewBox="0 0 1024 1024" version="1.1" xmlns="http://www.w3.org/2000/svg" p-id="3476" xmlns:xlink="http://www.w3.org/1999/xlink" width="32" height="32"><defs><style type="text/css"></style></defs><path d="M728.064 49.92v64.32H584.576c-39.68 0-71.936 33.856-71.936 75.328V479.36H364.544V376.32c0-25.024-20.48-45.504-45.44-45.504H46.336c-24.96 0-45.44 20.48-45.44 45.44v272.768c0 24.96 20.48 45.44 45.44 45.44h272.768c24.96 0 45.44-20.48 45.44-45.44V549.76H512.64v288c0 41.6 32.256 75.392 71.936 75.392h143.488v65.28c0 25.024 20.48 45.504 45.44 45.504h200c24.96 0 45.44-20.48 45.44-45.44v-200c0-24.96-20.48-45.44-45.44-45.44h-200c-24.96 0-45.44 20.48-45.44 45.44v64.32H585.024c-0.704-0.448-1.92-2.176-1.92-4.928v-288h144.96v63.936c0 24.96 20.48 45.44 45.44 45.44h200c24.96 0 45.44-20.48 45.44-45.44V413.888c0-24.96-20.48-45.44-45.44-45.44h-200c-24.96 0-45.44 20.48-45.44 45.44v65.664H583.04V189.888c0-2.688 1.28-4.416 1.92-4.864h143.104v65.28c0 25.088 20.48 45.504 45.44 45.504h200c24.96 0 45.44-20.48 45.44-45.44V50.368c0-24.96-20.48-45.44-45.44-45.44h-200a44.928 44.928 0 0 0-45.44 44.992z" fill="#FFFFFF" p-id="3477"></path></svg>