<?xml version="1.0" standalone="no"?><!DOCTYPE svg PUBLIC "-//W3C//DTD SVG 1.1//EN" "http://www.w3.org/Graphics/SVG/1.1/DTD/svg11.dtd"><svg t="1630056394966" class="icon" viewBox="0 0 1024 1024" version="1.1" xmlns="http://www.w3.org/2000/svg" p-id="2258" width="128" height="128" xmlns:xlink="http://www.w3.org/1999/xlink"><defs><style type="text/css"></style></defs><path d="M755.904 85.312a128 128 0 0 1 127.616 118.4l44.8 597.376a128 128 0 0 1-118.016 137.216l-4.8 0.256-582.208 0.128a128 128 0 0 1-128-128l0.384-9.6 44.8-597.312a128 128 0 0 1 127.616-118.4h487.808zM725.312 256A42.688 42.688 0 0 0 704 335.488c-21.12 98.752-99.072 171.968-192 171.968S341.12 434.24 320.064 335.552a42.624 42.624 0 1 0-25.984 5.504C317.44 453.76 406.208 537.6 512 537.6c101.888 0 187.904-77.76 215.04-184.128l2.88-12.416 1.728-0.192A42.688 42.688 0 0 0 725.312 256z" fill="#FFFFFF" p-id="2259"></path></svg>