<?xml version="1.0" standalone="no"?><!DOCTYPE svg PUBLIC "-//W3C//DTD SVG 1.1//EN" "http://www.w3.org/Graphics/SVG/1.1/DTD/svg11.dtd"><svg t="1629972978201" class="icon" viewBox="0 0 1024 1024" version="1.1" xmlns="http://www.w3.org/2000/svg" p-id="3903" xmlns:xlink="http://www.w3.org/1999/xlink" width="32" height="32"><defs><style type="text/css"></style></defs><path d="M1012.48 387.84c0.512 2.368 10.688 57.536 10.688 100.992 0 44.352-10.496 100.48-10.624 101.056-6.016 31.808-25.344 52.48-50.048 52.48h-4.352a125.824 125.824 0 0 0-125.056 126.336c0 22.4 10.752 48 10.88 48.256 12.352 28.032 2.816 62.4-23.808 81.024l-130.496 72.64a70.848 70.848 0 0 1-78.72-17.28c-14.08-15.616-63.296-60.48-101.696-60.48-35.392 0-83.328 39.936-100.992 59.392a71.232 71.232 0 0 1-80.384 15.872l-125.824-71.168a66.688 66.688 0 0 1-22.016-80.128c0.128-0.256 10.88-25.6 10.88-48.128a125.888 125.888 0 0 0-125.056-126.336H60.608c-23.808 0-43.136-20.608-49.152-52.48-0.448-2.432-10.624-57.792-10.624-101.056 0-43.328 10.24-98.752 10.624-101.056 6.016-31.872 25.216-52.416 49.92-52.416h4.352a125.824 125.824 0 0 0 125.12-126.336c0-22.848-10.816-48-10.88-48.32a67.008 67.008 0 0 1 23.808-81.152L336.704 6.144a71.808 71.808 0 0 1 78.336 16.448c13.952 14.72 62.208 56.96 99.456 56.96 36.864 0 84.928-41.28 98.752-55.808a72.448 72.448 0 0 1 80.192-15.104l128.256 72.192c24.96 17.6 34.56 51.968 22.144 80.128-0.128 0.256-10.88 25.6-10.88 48.128 0 69.632 56.192 126.4 125.056 126.4h5.248c23.936-0.128 43.264 20.48 49.28 52.288z m-319.168 114.816C693.312 401.92 612.032 320 512.256 320c-99.84 0-181.12 81.92-181.12 182.72 0 100.864 81.216 182.784 181.12 182.784 99.84 0 181.056-81.92 181.056-182.784z" fill="#FFFFFF" p-id="3904"></path></svg>