<?xml version="1.0" standalone="no"?><!DOCTYPE svg PUBLIC "-//W3C//DTD SVG 1.1//EN" "http://www.w3.org/Graphics/SVG/1.1/DTD/svg11.dtd"><svg t="1629970687771" class="icon" viewBox="0 0 1024 1024" version="1.1" xmlns="http://www.w3.org/2000/svg" p-id="2765" xmlns:xlink="http://www.w3.org/1999/xlink" width="32" height="32"><defs><style type="text/css"></style></defs><path d="M768 64a192 192 0 0 1 192 192v512a192 192 0 0 1-192 192H256a192 192 0 0 1-192-192V256a192 192 0 0 1 192-192h512z m6.08 282.24l-7.04 0.512a43.968 43.968 0 0 0-29.376 17.728L592.64 551.168l-165.12-130.112a44.544 44.544 0 0 0-63.104 8.448l-177.92 229.44a43.392 43.392 0 0 0-9.536 27.52l0.192 6.592a44.416 44.416 0 0 0 81.92 19.264L407.68 519.872l165.248 129.536a44.544 44.544 0 0 0 63.552-7.872l172.096-222.08v-1.152a45.44 45.44 0 0 0-8.448-62.912 43.968 43.968 0 0 0-19.136-8.448l-7.04-0.64z" fill="#FFFFFF" p-id="2766"></path></svg>